Normalized EMG Linear Envelopes
nRows=112
nColumns=4

endheader
time	 med_gas_r	  soleus_r	 tib_ant_r	
3.375	  0.009761	  0.006907	  0.001797	
3.4375	  0.009594	  0.006895	  0.001608	
3.5	  0.009409	  0.007201	  0.001487	
3.5625	  0.009147	  0.007620	  0.001439	
3.625	  0.008642	  0.007862	  0.001505	
3.6875	  0.007968	  0.007703	  0.001756	
3.75	  0.007668	  0.007258	  0.002347	
3.8125	  0.007804	  0.006893	  0.003462	
3.875	  0.007940	  0.006758	  0.005065	
3.9375	  0.007886	  0.006731	  0.006517	
4	  0.007733	  0.006619	  0.006330	
4.0625	  0.007389	  0.006477	  0.004905	
4.125	  0.007265	  0.006394	  0.003471	
4.1875	  0.007403	  0.006316	  0.002476	
4.25	  0.007574	  0.006263	  0.001962	
4.3125	  0.007779	  0.006264	  0.001801	
4.375	  0.008059	  0.006297	  0.001789	
4.4375	  0.008403	  0.006382	  0.001802	
4.5	  0.008401	  0.006544	  0.001805	
4.5625	  0.007927	  0.006731	  0.001790	
4.625	  0.007243	  0.006794	  0.001756	
4.6875	  0.006784	  0.006598	  0.001743	
4.75	  0.006783	  0.006390	  0.001788	
4.8125	  0.007019	  0.006298	  0.001860	
4.875	  0.007172	  0.006327	  0.001945	
4.9375	  0.007358	  0.006571	  0.002027	
5	  0.007752	  0.006938	  0.002073	
5.0625	  0.008312	  0.007256	  0.002082	
5.125	  0.008753	  0.007347	  0.002048	
5.1875	  0.008777	  0.006853	  0.001949	
5.25	  0.008404	  0.005186	  0.001697	
5.3125	  0.007313	  0.001516	  0.001197	
5.375	  0.004966	 -0.004518	  0.000569	
5.4375	  0.001437	 -0.011089	  0.000208	
5.5	 -0.002174	 -0.012066	  0.001060	
5.5625	 -0.002444	  0.004788	  0.004617	
5.625	  0.008360	  0.057374	  0.012576	
5.6875	  0.040891	  0.162122	  0.025459	
5.75	  0.104804	  0.314120	  0.040470	
5.8125	  0.200356	  0.459118	  0.051801	
5.875	  0.316752	  0.530028	  0.057022	
5.9375	  0.426880	  0.518044	  0.057302	
6	  0.503913	  0.450920	  0.053652	
6.0625	  0.533763	  0.343749	  0.048288	
6.125	  0.518821	  0.230543	  0.044370	
6.1875	  0.479670	  0.144234	  0.044672	
6.25	  0.459644	  0.094691	  0.047957	
6.3125	  0.480307	  0.081718	  0.049417	
6.375	  0.525601	  0.093898	  0.049911	
6.4375	  0.567560	  0.112792	  0.050735	
6.5	  0.592175	  0.129716	  0.050536	
6.5625	  0.593877	  0.140535	  0.048685	
6.625	  0.587664	  0.149200	  0.045112	
6.6875	  0.587257	  0.152506	  0.040039	
6.75	  0.596145	  0.147039	  0.034660	
6.8125	  0.602067	  0.135838	  0.030488	
6.875	  0.588428	  0.124933	  0.027996	
6.9375	  0.567317	  0.128613	  0.027876	
7	  0.580681	  0.150763	  0.030996	
7.0625	  0.634613	  0.180151	  0.036919	
7.125	  0.698357	  0.207664	  0.043581	
7.1875	  0.732872	  0.229194	  0.048582	
7.25	  0.739193	  0.248165	  0.052133	
7.3125	  0.737451	  0.274092	  0.055941	
7.375	  0.751554	  0.308856	  0.061215	
7.4375	  0.773931	  0.337344	  0.066818	
7.5	  0.782884	  0.359725	  0.070867	
7.5625	  0.770046	  0.387248	  0.071222	
7.625	  0.754350	  0.405822	  0.067662	
7.6875	  0.756670	  0.410097	  0.063047	
7.75	  0.765814	  0.415882	  0.060649	
7.8125	  0.764516	  0.430189	  0.060518	
7.875	  0.742033	  0.441731	  0.060700	
7.9375	  0.730138	  0.462087	  0.061786	
8	  0.733952	  0.488614	  0.063873	
8.0625	  0.737400	  0.521017	  0.067468	
8.125	  0.744698	  0.548462	  0.072016	
8.1875	  0.754291	  0.570113	  0.076915	
8.25	  0.768455	  0.589629	  0.079059	
8.3125	  0.783710	  0.619082	  0.078856	
8.375	  0.788101	  0.672368	  0.078278	
8.4375	  0.783542	  0.728994	  0.078119	
8.5	  0.770910	  0.756689	  0.078532	
8.5625	  0.760171	  0.781230	  0.080270	
8.625	  0.752057	  0.810774	  0.082605	
8.6875	  0.736924	  0.843302	  0.084788	
8.75	  0.722541	  0.863763	  0.084389	
8.8125	  0.706648	  0.860797	  0.081789	
8.875	  0.692864	  0.849938	  0.079680	
8.9375	  0.696699	  0.806311	  0.078329	
9	  0.710794	  0.779405	  0.077384	
9.0625	  0.724442	  0.791576	  0.075690	
9.125	  0.722686	  0.784514	  0.073024	
9.1875	  0.698479	  0.729066	  0.068124	
9.25	  0.654751	  0.666851	  0.062195	
9.3125	  0.615694	  0.602780	  0.057509	
9.375	  0.605098	  0.540551	  0.055277	
9.4375	  0.625671	  0.496257	  0.056210	
9.5	  0.659114	  0.455226	  0.059642	
9.5625	  0.676082	  0.430919	  0.063822	
9.625	  0.659076	  0.417169	  0.064480	
9.6875	  0.626007	  0.400940	  0.061854	
9.75	  0.600279	  0.375176	  0.059107	
9.8125	  0.582333	  0.344702	  0.057517	
9.875	  0.568981	  0.328685	  0.056330	
9.9375	  0.551122	  0.317926	  0.054783	
10	  0.516214	  0.296112	  0.051877	
10.0625	  0.471905	  0.266040	  0.045002	
10.125	  0.425422	  0.223078	  0.036340	
10.1875	  0.383636	  0.178118	  0.029124	
10.25	  0.344266	  0.136786	  0.023753	
10.3125	  0.300041	  0.097781	  0.019141	
